<svg xmlns="http://www.w3.org/2000/svg" xmlns:xlink="http://www.w3.org/1999/xlink" viewBox="0 0 500 500">
  <defs>
    <style>
      .eaa64717-cd4e-4cb2-bc97-9599f9505563 {
        fill: url(#a652a62f-d38b-4604-a7d5-fb8605b922fd);
      }

      .f2253845-39b0-4774-b94c-74cf27ee9378 {
        fill: #61dafb;
      }

      .a087b9de-5dda-4ead-8725-28234935d2ba {
        fill: #8cc84b;
      }

      .ad5da181-52b0-4f19-a36e-eca9c15166ee {
        fill: #fff;
      }

      .b9a3a014-b980-42d0-a971-a23b1c59eb29 {
        fill: #e9ca32;
      }

      .a5f8b57c-2bc0-465b-a543-7bd1a854bdbb {
        fill: #ffde25;
      }

      .a0a44cb2-339e-4cf2-92a2-6f4cb2a28732 {
        fill: #e34f26;
      }

      .f2e67a84-77f0-4426-908e-c236bcf098ee {
        fill: #ef652a;
      }

      .ff278c75-996e-414f-abcd-6324b40c8264 {
        fill: #1b73ba;
      }

      .b5b2172f-3901-4436-8600-9a5989ba2e73 {
        fill: #1c88c7;
      }

      .abfa60d1-9171-4ee2-b053-efa2e0f2aaa9 {
        fill: #017acb;
      }
    </style>
    <linearGradient id="a652a62f-d38b-4604-a7d5-fb8605b922fd" x1="0.15" y1="500.08" x2="0.18" y2="500.07" gradientTransform="matrix(2500, 0, 0, -1500, -47.5, 750331.03)" gradientUnits="userSpaceOnUse">
      <stop offset="0" stop-color="#2298bd"/>
      <stop offset="1" stop-color="#0ed7b5"/>
    </linearGradient>
  </defs>
  <g id="e76278cc-0bff-427c-bf28-8a9b91d6ce3a" data-name="Layer 2">
    <rect width="500" height="500"/>
  </g>
  <g id="b70be3df-1bf8-43d8-99cc-a26b309c4666" data-name="Layer 1">
    <path class="eaa64717-cd4e-4cb2-bc97-9599f9505563" d="M359.2,198.39q-15.48,0-19.34,15.47,5.81-7.73,13.54-5.8c2.94.74,5,2.87,7.37,5.23,3.79,3.85,8.18,8.31,17.77,8.31q15.46,0,19.34-15.47-5.81,7.73-13.54,5.8c-2.94-.74-5-2.87-7.37-5.23C373.17,202.85,368.79,198.39,359.2,198.39ZM339.86,221.6q-15.48,0-19.34,15.47,5.79-7.74,13.53-5.8c2.95.74,5.05,2.87,7.38,5.23,3.79,3.85,8.18,8.31,17.77,8.31q15.46,0,19.34-15.47-5.81,7.72-13.54,5.8c-2.94-.74-5.05-2.87-7.37-5.24C353.83,226.05,349.44,221.6,339.86,221.6Z"/>
    <g>
      <path class="f2253845-39b0-4774-b94c-74cf27ee9378" d="M286.58,221.41c0-5-6.26-9.73-15.85-12.67,2.22-9.77,1.23-17.55-3.1-20a6.79,6.79,0,0,0-3.44-.86V191a6.85,6.85,0,0,1,1.78.41c2.11,1.21,3,5.81,2.31,11.74-.17,1.46-.45,3-.79,4.56a73.91,73.91,0,0,0-9.85-1.69,74.77,74.77,0,0,0-6.45-7.76c5.05-4.7,14.23-7.27,14.23-7.27V187.4c-4.4,0-10.15,3.13-16,8.56-5.82-5.4-11.57-8.5-16-8.5v3.86c3.18,0,7.9,2.53,12.91,7.16a71.72,71.72,0,0,0-6.35,7.67,70.85,70.85,0,0,0-9.77,1.69,43.39,43.39,0,0,1-.8-4.46c-.73-5.87.17-10.43,2.24-11.65a3.49,3.49,0,0,1,1.77-.4v-3.42a6.77,6.77,0,0,0-3.47.86c-4.32,2.49-5.29,10.25-3.06,20-9.56,3-15.79,7.67-15.79,12.65s6.26,9.72,15.85,12.66c-2.21,9.77-1.23,17.55,3.1,20a6.81,6.81,0,0,0,3.46.86c4.23,0,9.76-3,15.35-8.24,5.6,5.2,11.13,8.18,15.36,8.18a6.9,6.9,0,0,0,3.47-.86c4.32-2.49,5.29-10.25,3.06-20,9.52-2.93,15.75-7.66,15.75-12.64Zm-20-10.35c-.57,2-1.28,4.07-2.09,6.13-.64-1.24-1.3-2.48-2-3.72s-1.47-2.45-2.23-3.63q3.3.48,6.35,1.22Zm-7.1,16.52c-1.21,2.09-2.45,4.08-3.74,5.92q-3.47.31-7,.31c-2.34,0-4.68-.1-7-.29-1.28-1.85-2.54-3.82-3.75-5.89s-2.25-4.1-3.22-6.18c1-2.07,2-4.15,3.21-6.18s2.45-4.08,3.73-5.93c2.31-.2,4.66-.31,7-.31s4.69.11,7,.3c1.29,1.84,2.55,3.81,3.76,5.89s2.24,4.09,3.22,6.17c-1,2.08-2,4.16-3.21,6.19Zm5-2c.84,2.08,1.55,4.16,2.14,6.18-2,.49-4.17.91-6.39,1.24.76-1.2,1.52-2.42,2.23-3.68s1.38-2.5,2-3.74Zm-15.73,16.55c-1.44-1.49-2.88-3.15-4.31-5,1.4.06,2.83.11,4.27.11s2.9,0,4.31-.11A61.68,61.68,0,0,1,248.78,242.11ZM237.25,233c-2.21-.33-4.33-.73-6.36-1.23.57-2,1.28-4.06,2.09-6.12.64,1.24,1.3,2.48,2,3.72S236.49,231.8,237.25,233Zm11.46-32.28a64.46,64.46,0,0,1,4.31,5c-1.4-.07-2.82-.11-4.27-.11s-2.9,0-4.31.11A60.18,60.18,0,0,1,248.71,200.7Zm-11.48,9.14c-.76,1.19-1.52,2.42-2.23,3.67s-1.38,2.48-2,3.73c-.84-2.08-1.55-4.16-2.14-6.18,2-.48,4.17-.9,6.39-1.22Zm-14,19.41c-5.49-2.34-9-5.41-9-7.84s3.56-5.52,9-7.85c1.33-.57,2.79-1.09,4.29-1.57a75.76,75.76,0,0,0,3.49,9.45,72.54,72.54,0,0,0-3.44,9.4,43.77,43.77,0,0,1-4.34-1.59Zm8.34,22.17c-2.11-1.21-3-5.82-2.31-11.74.17-1.46.45-3,.79-4.56a77.28,77.28,0,0,0,9.85,1.69,74.62,74.62,0,0,0,6.45,7.75c-5.06,4.7-9.8,7.27-13,7.27a3.65,3.65,0,0,1-1.75-.41Zm36.79-11.82c.72,5.92-.18,10.53-2.27,11.75a3.42,3.42,0,0,1-1.78.41c-3.21,0-8-2.56-13-7.23a74.28,74.28,0,0,0,6.41-7.74,72.18,72.18,0,0,0,9.86-1.7A44.88,44.88,0,0,1,268.33,239.6Zm6-10.35c-1.34.58-2.8,1.09-4.3,1.57a74.09,74.09,0,0,0-3.49-9.44A72.14,72.14,0,0,0,270,212c1.54.48,3,1,4.36,1.58,5.49,2.34,9,5.41,9,7.85s-3.56,5.52-9.05,7.84Z"/>
      <circle class="f2253845-39b0-4774-b94c-74cf27ee9378" cx="248.74" cy="221.41" r="7.09"/>
    </g>
    <g>
      <path class="a087b9de-5dda-4ead-8725-28234935d2ba" d="M138,183.28a5.9,5.9,0,0,1,5.76,0L170,198.14a5.4,5.4,0,0,1,2.73,4.66v29.81a5.46,5.46,0,0,1-2.94,4.76l-26.21,14.79a5.73,5.73,0,0,1-5.82-.16l-7.86-4.55a4.61,4.61,0,0,1-1.52-1.09c.33-.45.93-.51,1.42-.7a19,19,0,0,0,3.1-1.45.71.71,0,0,1,.81,0c2.24,1.28,4.46,2.6,6.7,3.87.48.28,1-.09,1.38-.31q12.85-7.27,25.73-14.53a.84.84,0,0,0,.47-.84q0-14.74,0-29.49a.91.91,0,0,0-.54-.92l-26.12-14.72a.9.9,0,0,0-1,0L114.23,202a.92.92,0,0,0-.56.92v29.5a.83.83,0,0,0,.48.82l7,3.94a5.37,5.37,0,0,0,4.36.59,3.3,3.3,0,0,0,2.14-3.11c0-9.78,0-19.55,0-29.33a.74.74,0,0,1,.8-.75h3.36a.77.77,0,0,1,.72.9c0,9.84,0,19.67,0,29.51,0,2.62-1.08,5.47-3.5,6.76a10.78,10.78,0,0,1-9.63-.27c-2.56-1.27-5-2.78-7.51-4.14a5.46,5.46,0,0,1-2.93-4.77V202.8a5.42,5.42,0,0,1,2.83-4.72Z"/>
      <path class="a087b9de-5dda-4ead-8725-28234935d2ba" d="M145.3,204c3.8-.25,7.86-.15,11.28,1.72a8.51,8.51,0,0,1,4.15,7.38.79.79,0,0,1-.86.58c-1.1,0-2.21,0-3.31,0-.46,0-.74-.42-.79-.83a5,5,0,0,0-2.41-3.47c-2-1-4.39-1-6.6-1A9,9,0,0,0,142,209.6a3,3,0,0,0-1,3.34c.35.84,1.32,1.11,2.12,1.36,4.57,1.2,9.42,1.08,13.9,2.66a6.53,6.53,0,0,1,4.31,3.83A8.17,8.17,0,0,1,160,228.6a11,11,0,0,1-5.88,3.17,28.1,28.1,0,0,1-8.87.38c-2.78-.32-5.67-1.05-7.81-2.94a8.19,8.19,0,0,1-2.64-6.46.75.75,0,0,1,.81-.65h3.33a.77.77,0,0,1,.79.77,5.07,5.07,0,0,0,1.88,3.54c2.25,1.45,5.08,1.35,7.66,1.39,2.14-.09,4.54-.12,6.28-1.53a3.48,3.48,0,0,0,1-3.32c-.27-1-1.3-1.43-2.18-1.73-4.51-1.43-9.41-.91-13.88-2.53a6.74,6.74,0,0,1-4.27-3.72,7.61,7.61,0,0,1,1.52-7.92c2-2,4.88-2.79,7.62-3.06Z"/>
    </g>
    <path class="ad5da181-52b0-4f19-a36e-eca9c15166ee" d="M223.7,292.86h17.53v1.46H225.16v10.23h14.61V306H225.16v11.69h16.07v1.46H223.7Zm19.53,0h1.88l8.29,11.57,8.48-11.57,11.53-14.69-19,27.48,9.77,13.52h-2l-8.88-12.31-8.92,12.31h-1.91l9.84-13.52Zm21.39,1.46v-1.46h20.46v1.46h-8.77v24.85h-1.46V294.32Zm-62.85-1.46h1.68l28.13,41.84L220,319.2l-16.72-24.58v24.55h-1.46Zm83.35,24.5a.6.6,0,0,1,0-1.19.6.6,0,0,1,0,1.19Zm1.6-1.11h.88a1.26,1.26,0,0,0,.86.34c.57,0,.89-.34,1-1v-3.75h1.46v3.75c-.68,1.15-1.35,1.82-2.45,1.82a1.6,1.6,0,0,1-1.75-1.63Zm4.49,0h1c.08.59.66,1,1.49,1s1.35-.4,1.35-.95-.36-.76-1.19-1l-.8-.19c-1.13-.26-1.64-.81-1.64-1.73,0-1.11.9-1.85,2.26-1.85a2,2,0,0,1,2.25,1.79H295a1.19,1.19,0,0,0-1.32-.93c-.76,0-1.27.37-1.27.93s.33.7,1.14.89l.68.17c1.28.3,1.81.82,1.81,1.75,0,1.2-.92,1.95-2.4,1.95s-2.31-.72-2.38-1.83Z"/>
    <g>
      <path class="b9a3a014-b980-42d0-a971-a23b1c59eb29" d="M220.9,140.79,215.27,72l67.22.14-5.95,68.65-27.4,7.93Z"/>
      <path class="a5f8b57c-2bc0-465b-a543-7bd1a854bdbb" d="M249.21,142.9V79.37l27.68.09L272,136.3Z"/>
      <path class="ad5da181-52b0-4f19-a36e-eca9c15166ee" d="M245.53,86.73h-6.14V129l-6.14-1.08v-5.82l-7.37-1.18v13L245.53,139Zm6.13,0h20.65l-1.44,8.59H259V107.6h10.64l-1.29,26.17-16.72,4v-8.2l11.3-4,.65-10.84-12,1.78Z"/>
    </g>
    <g>
      <path class="a0a44cb2-339e-4cf2-92a2-6f4cb2a28732" d="M107.61,139.14,102.12,72l65.61.13-5.81,67-26.75,7.74Z"/>
      <path class="f2e67a84-77f0-4426-908e-c236bcf098ee" d="M135.25,140.93v-62l27,.09-4.82,55.47Z"/>
      <path class="ad5da181-52b0-4f19-a36e-eca9c15166ee" d="M154.74,94.52l.81-8.66H113.92l2.38,26h28.64l-1.12,10.45-9.19,2.48-9.32-2.71-.49-6.75H117l1.1,12.74,16.52,4.61,16.65-4.61,2.24-24.87H123.87L123,94.52Z"/>
    </g>
    <g>
      <path class="ff278c75-996e-414f-abcd-6324b40c8264" d="M332.93,138.16l-5.31-64.93,63.46.13-5.62,64.8-25.87,7.5Z"/>
      <path class="b5b2172f-3901-4436-8600-9a5989ba2e73" d="M360.45,139.39v-60l26.13.09-4.66,53.66Z"/>
      <path class="ad5da181-52b0-4f19-a36e-eca9c15166ee" d="M379,87.68H336.67l1.15,8.26h21.91l-19.84,8.52,1.15,8h28.13l-1,9.32-9.37,1.83-8.49-2.18-.65-6.9H341.6l1,12.52,16.75,4.67,16.05-5.11,2.05-24.47h-17L379,94.46Z"/>
    </g>
    <g>
      <path class="abfa60d1-9171-4ee2-b053-efa2e0f2aaa9" d="M225.56,364.17h63.83V428H225.56Z"/>
      <path class="ad5da181-52b0-4f19-a36e-eca9c15166ee" d="M256.93,387.49h3v4.91h-8.59V416l-.23.06c-.31.08-4.35.08-5.22,0l-.69-.06V392.4h-7.37v-4.91l2.57,0c1.41,0,5,0,8,0Zm23,26.53a10.29,10.29,0,0,1-7.95,2.85,10.2,10.2,0,0,1-3.35-.28,11.31,11.31,0,0,1-6.33-3.94,9.73,9.73,0,0,1-1.11-1.8s.1-.13.23-.19.4-.23.62-.36.62-.37.89-.51,1.05-.6,1.72-1A10,10,0,0,1,266,408c.07,0,.2.14.3.31a8.14,8.14,0,0,0,3,2.74,9.08,9.08,0,0,0,2.61.55,7,7,0,0,0,2.29-.53,2.81,2.81,0,0,0,1.32-1.16c.26-.41.29-.52.28-1.3a2,2,0,0,0-.24-1.25c-.56-.92-1.31-1.4-4.39-2.75s-4.61-2.25-5.77-3.38a6,6,0,0,1-1.56-2.12,6.28,6.28,0,0,1-.8-3.79,7.52,7.52,0,0,1,.17-2.35,10.26,10.26,0,0,1,1.19-2.46,8.94,8.94,0,0,1,1.32-1.35,9.59,9.59,0,0,1,5.51-1.93c.23,0,1,0,1.7.09a8.1,8.1,0,0,1,4.76,1.74c1,.8,2.54,2.68,2.39,2.93s-4.09,2.81-4.35,2.89-.27,0-.49-.27c-1.35-1.63-1.9-2-3.22-2.06a2.89,2.89,0,0,0-2.07.47,2.26,2.26,0,0,0-1,2c0,1.35.53,2,2.45,2.94,1.24.61,2.3,1.11,2.38,1.11s2.68,1.28,3.35,1.68c3.12,1.83,4.39,3.71,4.72,6.94a7.8,7.8,0,0,1-1.95,6.25Z"/>
    </g>
  </g>
</svg>
